<?xml version="1.0" encoding="UTF-8"?>
<svg width="126px" height="44px" viewBox="0 0 126 44" version="1.1" xmlns="http://www.w3.org/2000/svg" xmlns:xlink="http://www.w3.org/1999/xlink">
    <!-- Generator: Sketch 59.1 (86144) - https://sketch.com -->
    <title>logo</title>
    <desc>Created with Sketch.</desc>
    <defs>
        <path d="M0.019687619,14.1828571 C0.019687619,21.9238908 6.29502984,28.1990603 14.0360635,28.1990603 L14.0360635,28.1990603 C21.7769244,28.1990603 28.0522667,21.9238908 28.0522667,14.1828571 L28.0522667,14.1828571 C28.0522667,6.44199619 21.7769244,0.166653968 14.0360635,0.166653968 L14.0360635,0.166653968 C6.29502984,0.166653968 0.019687619,6.44199619 0.019687619,14.1828571" id="path-1"></path>
        <path d="M0.019687619,14.1828571 C0.019687619,21.9238908 6.29502984,28.1990603 14.0360635,28.1990603 L14.0360635,28.1990603 C21.7769244,28.1990603 28.0522667,21.9238908 28.0522667,14.1828571 L28.0522667,14.1828571 C28.0522667,6.44199619 21.7769244,0.166653968 14.0360635,0.166653968 L14.0360635,0.166653968 C6.29502984,0.166653968 0.019687619,6.44199619 0.019687619,14.1828571" id="path-3"></path>
        <path d="M0.019687619,14.1828571 C0.019687619,21.9238908 6.29502984,28.1990603 14.0360635,28.1990603 L14.0360635,28.1990603 C21.7769244,28.1990603 28.0522667,21.9238908 28.0522667,14.1828571 L28.0522667,14.1828571 C28.0522667,6.44199619 21.7769244,0.166653968 14.0360635,0.166653968 L14.0360635,0.166653968 C6.29502984,0.166653968 0.019687619,6.44199619 0.019687619,14.1828571" id="path-5"></path>
        <path d="M0.019687619,14.1828571 C0.019687619,21.9238908 6.29502984,28.1990603 14.0360635,28.1990603 L14.0360635,28.1990603 C21.7769244,28.1990603 28.0522667,21.9238908 28.0522667,14.1828571 L28.0522667,14.1828571 C28.0522667,6.44199619 21.7769244,0.166653968 14.0360635,0.166653968 L14.0360635,0.166653968 C6.29502984,0.166653968 0.019687619,6.44199619 0.019687619,14.1828571" id="path-7"></path>
        <polygon id="path-9" points="0 0.0972292063 35.3876585 0.0972292063 35.3876585 43.347267 0 43.347267"></polygon>
        <linearGradient x1="6.59197131%" y1="100%" x2="100%" y2="100%" id="linearGradient-11">
            <stop stop-color="#FCEB7F" offset="0%"></stop>
            <stop stop-color="#F8643B" offset="100%"></stop>
        </linearGradient>
    </defs>
    <g id="页面-1" stroke="none" stroke-width="1" fill="none" fill-rule="evenodd">
        <g id="切图" transform="translate(-179.000000, -64.000000)">
            <g id="logo" transform="translate(179.000000, 64.000000)">
                <g id="编组" transform="translate(21.753333, 22.995093) rotate(-90.000000) translate(-21.753333, -22.995093) translate(7.253333, 8.495093)">
                    <mask id="mask-2" fill="white">
                        <use xlink:href="#path-1"></use>
                    </mask>
                    <g id="Clip-2"></g>
                    <path d="M15.6718497,5.19155606 L15.6718497,0.748198603 C15.6718497,0.521790984 15.2566521,0.338212571 14.7447072,0.338212571 L-4.32815035,0.338212571 L-4.32815035,5.6015421 L14.7447072,5.6015421 C15.2566521,5.6015421 15.6718497,5.41813638 15.6718497,5.19155606" id="Fill-1" fill="#476AFA" mask="url(#mask-2)"></path>
                </g>
                <g id="编组" transform="translate(21.753333, 22.995093) rotate(-90.000000) translate(-21.753333, -22.995093) translate(7.253333, 8.495093)">
                    <mask id="mask-4" fill="white">
                        <use xlink:href="#path-3"></use>
                    </mask>
                    <g id="Clip-4"></g>
                    <path d="M29.9564221,12.819455 L29.9564221,8.37609752 C29.9564221,8.1496899 29.750911,7.96611149 29.497217,7.96611149 L-4.32818489,7.96611149 L-4.32818489,13.229441 L29.497217,13.229441 C29.750911,13.229441 29.9564221,13.0458626 29.9564221,12.819455" id="Fill-3" fill="#00A0FA" mask="url(#mask-4)"></path>
                </g>
                <g id="编组" transform="translate(21.753333, 22.995093) rotate(-90.000000) translate(-21.753333, -22.995093) translate(7.253333, 8.495093)">
                    <mask id="mask-6" fill="white">
                        <use xlink:href="#path-5"></use>
                    </mask>
                    <g id="Clip-6"></g>
                    <path d="M18.0710928,20.4473539 L18.0710928,16.0039964 C18.0710928,15.7775888 17.8655817,15.5940104 17.6118877,15.5940104 L-4.3282367,15.5940104 L-4.3282367,20.8571672 L17.6118877,20.8571672 C17.8655817,20.8571672 18.0710928,20.6737615 18.0710928,20.4473539" id="Fill-5" fill="#00B7F8" mask="url(#mask-6)"></path>
                </g>
                <g id="编组" transform="translate(21.753333, 22.995093) rotate(-90.000000) translate(-21.753333, -22.995093) translate(7.253333, 8.495093)">
                    <mask id="mask-8" fill="white">
                        <use xlink:href="#path-7"></use>
                    </mask>
                    <g id="Clip-8"></g>
                    <path d="M43.6702649,28.0752701 L43.6702649,23.6319126 C43.6702649,23.405505 43.4647538,23.2217539 43.2110598,23.2217539 L-4.32815035,23.2217539 L-4.32815035,28.4850834 L43.2110598,28.4850834 C43.4647538,28.4850834 43.6702649,28.3016777 43.6702649,28.0752701" id="Fill-7" fill="#27CFF9" mask="url(#mask-8)"></path>
                </g>
                <g id="编组" transform="translate(22.000000, 26.000000) rotate(-90.000000) translate(-22.000000, -26.000000) translate(4.000000, 4.000000)">
                    <mask id="mask-10" fill="white">
                        <use xlink:href="#path-9"></use>
                    </mask>
                    <g id="Clip-12"></g>
                    <path d="M21.625088,43.347267 C9.7009534,43.347267 -3.45396825e-05,33.6462791 -3.45396825e-05,21.7221445 C-3.45396825e-05,9.7981826 9.7009534,0.0971946667 21.625088,0.0971946667 C26.3974359,0.0971946667 30.9224797,1.62125816 34.7107921,4.50445816 C35.4649661,5.07850768 35.611069,6.15528229 35.0370194,6.90962895 C34.4631426,7.66380292 33.386368,7.81007848 32.6318486,7.23568356 C29.4462537,4.81117054 25.6401534,3.52957562 21.625088,3.52957562 C11.593728,3.52957562 3.43251911,11.6907845 3.43251911,21.7221445 C3.43251911,31.7535045 11.593728,39.9147134 21.625088,39.9147134 C25.3885318,39.9147134 28.9993102,38.7759401 32.0669521,36.6218728 C32.8425407,36.0770093 33.9130982,36.2642143 34.457789,37.0401483 C35.0024797,37.8157369 34.8152747,38.8861217 34.0395134,39.4308124 C30.3910867,41.9929661 26.0981496,43.347267 21.625088,43.347267" id="Fill-11" fill="#5644ED" mask="url(#mask-10)"></path>
                </g>
                <path d="M10.3511096,18.4191875 L10.3511096,13.155858 L24.9100671,13.155858 C25.1536683,13.155858 25.3511096,13.4328662 25.3511096,13.7744637 L25.3511096,17.8004091 C25.3511096,18.1421793 25.1536683,18.4191875 24.9100671,18.4191875 L10.3511096,18.4191875 Z" id="Fill-13" fill="#00A0FA" transform="translate(17.851110, 15.787523) rotate(-90.000000) translate(-17.851110, -15.787523) "></path>
                <path d="M20.9790258,21.4191875 L20.9790258,16.155858 L29.574097,16.155858 C29.7977009,16.155858 29.9790258,16.4328662 29.9790258,16.7744637 L29.9790258,20.8004091 C29.9790258,21.1421793 29.7977009,21.4191875 29.574097,21.4191875 L20.9790258,21.4191875 Z" id="Fill-15" fill="#00B7F8" transform="translate(25.479026, 18.787523) rotate(-90.000000) translate(-25.479026, -18.787523) "></path>
                <path d="M21.4638095,14.2761069 L21.4638095,9.29893863 L43.9808961,9.29893863 C44.2475635,9.29893863 44.4638095,9.57594688 44.4638095,9.91771704 L44.4638095,13.6575012 C44.4638095,13.9990986 44.2475635,14.2761069 43.9808961,14.2761069 L21.4638095,14.2761069 Z" id="Fill-17" fill="#27CFF9" transform="translate(32.963810, 11.787523) rotate(-90.000000) translate(-32.963810, -11.787523) "></path>
                <path d="M32.5,5.53953749 C33.3284271,5.53953749 34,6.21111036 34,7.03953749 C34,7.86796461 33.3284271,8.53953749 32.5,8.53953749 C32.4959671,8.53953749 32.4919379,8.53952157 32.4879125,8.5394898 L26.8287128,18.3428051 C26.9381035,18.5509911 27,18.7880359 27,19.0395375 C27,19.8679646 26.3284271,20.5395375 25.5,20.5395375 C24.6715729,20.5395375 24,19.8679646 24,19.0395375 C24,18.9880416 24.002595,18.9371518 24.0076612,18.8869917 L18.4903523,15.1661517 C18.226156,15.3985766 17.8795396,15.5395375 17.5,15.5395375 C17.1115576,15.5395375 16.7576011,15.391886 16.4911928,15.1496455 L12.9804805,17.7969235 C12.9933234,17.8758953 13,17.9569367 13,18.0395375 C13,18.8679646 12.3284271,19.5395375 11.5,19.5395375 C10.6715729,19.5395375 10,18.8679646 10,18.0395375 C10,17.2111104 10.6715729,16.5395375 11.5,16.5395375 C11.8202323,16.5395375 12.1170268,16.6398869 12.3606529,16.8108552 L16.001,14.0665375 L16,14.0395375 C16,13.2598414 16.5948881,12.6190888 17.35554,12.5464041 L17.5,12.5395375 C18.3284271,12.5395375 19,13.2111104 19,14.0395375 C19,14.0625494 18.9994818,14.0854402 18.9984565,14.108199 L24.5666297,17.8652318 C24.8227901,17.6613575 25.1471688,17.5395375 25.5,17.5395375 C25.6454764,17.5395375 25.7861158,17.560247 25.919131,17.5988787 L31.4166349,8.07699908 C31.158562,7.80758019 31,7.44207591 31,7.03953749 C31,6.21111036 31.6715729,5.53953749 32.5,5.53953749 Z" id="形状结合" fill="url(#linearGradient-11)"></path>
                <path d="M61.7371822,31.9334737 C56.9194414,31.9334737 53,27.9110556 53,22.9667368 C53,18.0224181 56.9194414,14 61.7371822,14 C63.7081896,14 65.5688253,14.6576818 67.1178303,15.9017173 C67.6314328,16.3140792 67.7218449,17.0757659 67.3200398,17.6027405 C66.9181158,18.129837 66.1760476,18.2226245 65.662564,17.8102627 C64.5329474,16.9029934 63.175578,16.423449 61.7371822,16.423449 C58.2215656,16.423449 55.361407,19.3587534 55.361407,22.9667368 C55.361407,26.5748422 58.2215656,29.5100247 61.7371822,29.5100247 C63.113442,29.5100247 64.4235262,29.0675465 65.5258172,28.2302642 C66.0497558,27.832046 66.7890915,27.9453175 67.1772338,28.4833875 C67.5651385,29.0212137 67.4547669,29.7800961 66.9305906,30.1781924 C65.4187721,31.3265141 63.623005,31.9334737 61.7371822,31.9334737" id="Fill-21" fill="#FBFBFB"></path>
                <path d="M99.9667368,16.434406 C96.3648546,16.434406 93.434406,19.3648546 93.434406,22.9667368 C93.434406,26.5686191 96.3648546,29.4990677 99.9667368,29.4990677 C103.568619,29.4990677 106.499068,26.5686191 106.499068,22.9667368 C106.499068,19.3648546 103.568619,16.434406 99.9667368,16.434406 M99.9667368,31.9334737 C95.0224774,31.9334737 91,27.9109963 91,22.9667368 C91,18.0224774 95.0224774,14 99.9667368,14 C104.910874,14 108.933474,18.0224774 108.933474,22.9667368 C108.933474,27.9109963 104.910874,31.9334737 99.9667368,31.9334737" id="Fill-23" fill="#FBFBFB"></path>
                <path d="M79.9667368,16.434406 C76.3648546,16.434406 73.434406,19.3648546 73.434406,22.9667368 C73.434406,26.5686191 76.3648546,29.4990677 79.9667368,29.4990677 C83.5686191,29.4990677 86.4990677,26.5686191 86.4990677,22.9667368 C86.4990677,19.3648546 83.5686191,16.434406 79.9667368,16.434406 M79.9667368,31.9334737 C75.0224774,31.9334737 71,27.9109963 71,22.9667368 C71,18.0224774 75.0224774,14 79.9667368,14 C84.9108738,14 88.9334737,18.0224774 88.9334737,22.9667368 C88.9334737,27.9109963 84.9108738,31.9334737 79.9667368,31.9334737" id="Fill-23备份" fill="#FBFBFB"></path>
                <path d="M124.112559,29.4990677 L115.433409,29.4990677 L115.433409,15.2173255 C115.433409,14.5450345 114.88872,14 114.216827,14 C113.544811,14 113,14.5450345 113,15.2173255 L113,30.7162707 C113,31.3885616 113.544811,31.9334737 114.216827,31.9334737 C114.244251,31.9334737 114.270941,31.9311466 114.297875,31.9294319 C114.32481,31.9311466 114.351499,31.9334737 114.379046,31.9334737 L124.112559,31.9334737 C124.784574,31.9334737 125.329263,31.3885616 125.329263,30.7162707 C125.329263,30.0439798 124.784574,29.4990677 124.112559,29.4990677" id="Fill-25" fill="#FBFBFB"></path>
            </g>
        </g>
    </g>
</svg>