<?xml version="1.0" standalone="no"?><!DOCTYPE svg PUBLIC "-//W3C//DTD SVG 1.1//EN" "http://www.w3.org/Graphics/SVG/1.1/DTD/svg11.dtd"><svg t="1573559040358" class="icon" viewBox="0 0 4432 1024" version="1.1" xmlns="http://www.w3.org/2000/svg" p-id="5086" xmlns:xlink="http://www.w3.org/1999/xlink" width="554" height="128"><defs><style type="text/css"></style></defs><path d="M503.565964 976.393309c28.411345 23.552 62.147491 35.318691 101.189818 35.318691 85.271273 0 168.420073-56.636509 249.4464-169.909527 81.026327-113.273018 153.357964-274.692655 216.994909-484.277527 7.205236 3.816727 14.410473 7.316945 21.634327 10.500655 7.205236 3.183709 15.695127 6.683927 25.451055 10.500655l43.901673-93.537745c-11.040582-5.082764-22.583855-10.705455-34.685673-16.868073-12.0832-6.144-25.134545-13.256145-39.135418-21.317818 5.082764-17.8176 8.694691-34.052655 10.817164-48.686545 2.122473-14.633891 3.183709-28.727855 3.183709-42.319127 0-44.125091-9.867636-79.220364-29.584291-105.323055S1026.438982 11.357091 992.944873 11.357091c-30.552436 0-55.370473 11.357091-74.454109 34.052655-19.083636 22.695564-28.634764 52.503273-28.634764 89.404509 0 30.552436 5.622691 56.953018 16.868073 79.220364 11.245382 22.267345 30.440727 45.502836 57.586036 69.687855-48.798255 165.459782-103.945309 300.367127-165.459782 404.722036-61.514473 104.354909-114.539055 156.541673-159.092364 156.541673-30.552436 0-55.053964-14.9504-73.504582-44.869818s-27.685236-70.097455-27.685236-120.589964l0-22.267345c46.228945-34.778764 83.372218-77.097891 111.355345-126.957382 28.001745-49.840873 42.002618-97.037964 42.002618-141.591273 0-28.411345-7.540364-50.902109-22.583855-67.453673-15.062109-16.551564-35.746909-24.818036-62.0544-24.818036-24.185018 0-48.574836 10.091055-73.188073 30.235927-24.613236 20.163491-47.5136 49.114764-68.719709 86.872436-23.328582 41.146182-41.146182 83.465309-53.4528 126.957382-12.306618 43.492073-18.450618 86.444218-18.450618 128.856436 0 14.000873 1.694255 36.901236 5.082764 68.719709l0 3.816727c-32.674909 42.859055-63.320436 75.720145-91.9552 98.639127s-53.136291 34.369164-73.504582 34.369164c-22.062545 0-37.981091-9.755927-47.7184-29.267782-9.755927-19.511855-14.633891-52.596364-14.633891-99.272145 0-65.3312 11.561891-142.336 34.685673-230.995782 23.123782-88.659782 54.625745-173.726255 94.505891-255.1808 22.062545-45.819345 46.880582-89.2928 74.454109-130.4576 27.573527-41.146182 41.3696-64.698182 41.3696-70.637382 0-10.184145-11.6736-20.6848-35.002182-31.501964C357.413236 16.774982 333.879855 11.357091 310.123055 11.357091c-18.674036 0-40.196655 13.367855-64.586473 40.084945-24.408436 26.735709-51.442036 67.248873-81.138036 121.539491-49.226473 88.250182-87.821964 182.960873-115.823709 284.132073S6.572218 651.971491 6.572218 738.080582c0 89.944436 16.011636 158.031127 48.053527 204.278691 32.023273 46.247564 79.015564 69.371345 140.958255 69.371345 42.002618 0 82.292364-11.654982 120.906473-35.002182 38.595491-23.328582 77.4144-59.392 116.456727-108.190255C451.602618 916.908218 475.136 952.859927 503.565964 976.393309z" p-id="5087"></path><path d="M1227.440873 770.215564c-4.673164-15.062109-7.000436-32.9728-7.000436-53.769309 0-54.718836 13.572655-102.772364 40.736582-144.141964 27.145309-41.3696 58.330764-62.0544 93.537745-62.0544 16.961164 0 29.9008 4.766255 38.818909 14.317382s13.367855 23.440291 13.367855 41.686109c0 36.491636-15.062109 79.220364-45.186327 128.223418-30.124218 49.003055-67.248873 87.933673-111.355345 116.773236C1239.728873 798.962036 1232.095418 785.277673 1227.440873 770.215564zM1278.342982 993.577891c36.063418 10.388945 77.842618 15.583418 125.356218 15.583418l17.184582 0 24.818036-85.904291-8.918109 0c-30.552436 0-56.32-3.500218-77.321309-10.500655s-40.401455-18.767127-58.219055-35.318691c61.086255-46.228945 109.9776-99.588655 146.674036-160.041891 36.696436-60.453236 55.053964-115.712 55.053964-165.776291 0-45.819345-12.827927-81.975855-38.5024-108.506764-25.674473-26.512291-60.564945-39.768436-104.690036-39.768436-78.903855 0-147.325673 31.408873-205.228218 94.189382-57.902545 62.799127-86.872436 136.6016-86.872436 221.463273 0 36.491636 3.816727 68.310109 11.450182 95.455418 7.633455 27.145309 19.511855 51.330327 35.6352 72.536436-23.328582 10.184145-47.401891 18.245818-72.219927 24.185018-24.818036 5.9392-51.870255 9.979345-81.138036 12.0832l-25.451055 85.904291c42.002618-1.694255 83.688727-7.856873 125.039709-18.450618s82.627491-25.655855 123.773673-45.186327C1211.094109 967.177309 1242.279564 983.188945 1278.342982 993.577891z" p-id="5088"></path><path d="M1502.841018 985.627927c31.818473-14.000873 61.719273-33.940945 89.721018-59.820218 7.633455 28.429964 24.594618 49.431273 50.902109 63.003927s63.208727 20.368291 110.740945 20.368291l14.633891 0 24.818036-85.904291c-26.735709 0-45.800727-5.082764-57.269527-15.266909-11.450182-10.184145-17.184582-26.735709-17.184582-49.636073 0-28.839564 9.867636-87.188945 29.584291-174.992291 19.735273-87.821964 45.912436-184.1152 78.587345-288.916945 42.412218-52.596364 76.055273-104.466618 100.854691-155.592145 24.818036-51.125527 37.236364-93.221236 37.236364-126.324364 0-26.735709-6.907345-48.574836-20.666182-65.554618-13.796073-16.961164-31.297164-25.451055-52.503273-25.451055-31.818473 0-59.931927 15.806836-84.321745 47.401891-24.389818 31.613673-50.5856 88.771491-78.587345 171.492073-33.512727 100.128582-62.687418 201.411491-87.505455 303.867345s-44.218182 201.839709-58.219055 298.132945c-31.408873 28.001745-59.5968 48.481745-84.638255 61.402764-25.022836 12.939636-48.574836 19.400145-70.637382 19.400145l-24.185018 85.904291C1438.161455 1007.467055 1471.022545 999.6288 1502.841018 985.627927z" p-id="5089"></path><path d="M1876.303127 990.394182c36.473018-11.245382 69.129309-27.461818 97.987491-48.686545 28.001745 22.900364 64.046545 40.308364 108.190255 52.186764 44.125091 11.8784 95.0272 17.8176 152.724945 17.8176 0.4096 0 1.489455 0 3.183709 0 7.652073-1.694255 14.838691-2.550691 21.634327-2.550691l24.185018-85.904291c-82.720582-1.266036-143.080727-16.123345-181.0432-44.553309-37.981091-28.411345-56.953018-72.964655-56.953018-133.641309 0-60.658036 17.072873-114.110836 51.218618-160.3584 34.145745-46.228945 72.648145-69.371345 115.5072-69.371345 19.511855 0 33.736145 4.673164 42.654255 14.000873 8.899491 9.327709 13.349236 23.7568 13.349236 43.268655 0 7.633455 1.377745 12.418327 4.133236 14.317382 2.755491 1.917673 7.521745 2.8672 14.317382 2.8672 18.2272 0 33.829236-7.316945 46.768873-21.950836 12.939636-14.633891 19.400145-32.9728 19.400145-55.053964 0-32.656291-12.827927-59.075491-38.5024-79.220364-25.674473-20.144873-60.136727-30.235927-103.405382-30.235927-84.861673 0-160.172218 34.685673-225.913018 104.0384-65.778036 69.371345-98.639127 150.285964-98.639127 242.781091 0 28.858182 2.438982 53.992727 7.316945 75.403636 4.877964 21.429527 12.418327 41.053091 22.602473 58.870691-19.958691 11.8784-41.146182 21.001309-63.636945 27.368727-22.490764 6.367418-46.657164 10.184145-72.536436 11.450182l-25.451055 85.904291C1799.521745 1007.895273 1839.811491 1001.639564 1876.303127 990.394182z" p-id="5090"></path><path d="M2734.601309 825.586036c-41.5744 62.575709-84.210036 93.872873-127.906909 93.872873-18.245818 0-32.5632-6.572218-42.952145-19.735273-10.407564-13.144436-15.583418-31.390255-15.583418-54.718836 0-49.207855 11.654982-101.915927 35.002182-158.142836 23.328582-56.208291 56.841309-111.690473 100.538182-166.409309 11.021964-13.572655 26.8288-30.440727 47.401891-50.5856 20.573091-20.144873 30.868945-34.890473 30.868945-44.218182 0-6.777018-2.6624-12.194909-7.949964-16.235055-5.306182-4.021527-12.623127-6.050909-21.950836-6.050909-35.2256 0-73.188073 10.817164-113.906036 32.451491s-75.720145 49.859491-105.006545 84.638255c-33.512727 39.042327-59.931927 83.781818-79.220364 134.274327-19.307055 50.492509-28.951273 99.272145-28.951273 146.357527 0 17.408 1.266036 33.829236 3.816727 49.319564 2.550691 15.490327 6.367418 30.235927 11.450182 44.218182-14.838691 8.489891-31.501964 15.062109-49.952582 19.735273-18.450618 4.673164-39.340218 7.633455-62.687418 8.918109l-25.451055 85.904291c35.6352-1.266036 68.4032-5.622691 98.322618-13.051345s58.870691-18.134109 86.872436-32.134982c15.695127 16.123345 34.685673 28.113455 56.953018 35.951709s48.463127 11.766691 78.587345 11.766691c41.5744 0 80.393309-11.766691 116.456727-35.318691 36.063418-23.552 69.780945-59.075491 101.189818-106.589091 29.696-44.553309 52.708073-93.444655 69.036218-146.674036 16.328145-53.229382 24.501527-105.527855 24.501527-156.858182 0-41.146182-7.856873-73.188073-23.552-96.088436-15.695127-22.900364-37.757673-34.369164-66.187636-34.369164-25.879273 0-47.3088 9.867636-64.269964 29.584291-16.979782 19.735273-25.451055 44.6464-25.451055 74.770618 0 20.796509 5.510982 37.329455 16.551564 49.636073 11.021964 12.306618 27.145309 20.163491 48.370036 23.552C2797.810036 692.261236 2776.175709 763.010327 2734.601309 825.586036z" p-id="5091"></path><path d="M2952.061673 991.045818c24.613236-10.388945 46.024145-24.911127 64.269964-43.585164-0.428218 1.694255-1.266036 4.040145-2.550691 7.000436-7.633455 18.674036-11.450182 30.980655-11.450182 36.901236 0 7.223855 3.500218 12.418327 10.500655 15.583418 7.000436 3.183709 18.767127 4.766255 35.318691 4.766255 25.022836 0 43.156945-1.377745 54.402327-4.133236 11.245382-2.755491 19.623564-7.316945 25.134545-13.684364 1.694255-2.122473 9.551127-20.6848 23.552-55.686982s28.206545-68.626618 42.635636-100.854691c33.084509-74.658909 75.403636-143.713745 126.957382-207.127273 51.535127-63.413527 87.915055-95.138909 109.121164-95.138909 7.652073 0 13.684364 2.122473 18.134109 6.367418 4.468364 4.244945 6.683927 10.407564 6.683927 18.450618 0 12.306618-4.356655 31.930182-13.051345 58.870691-8.694691 26.940509-29.584291 81.994473-62.687418 165.143273-12.734836 32.674909-28.951273 71.698618-48.667927 117.089745-19.735273 45.391127-29.602909 71.903418-29.602909 79.536873 0 9.755927 6.144 16.551564 18.450618 20.368291s34.369164 5.7344 66.187636 5.7344c35.206982 0 60.453236-19.735273 75.720145-59.1872 12.306618-31.818473 24.389818-59.820218 36.268218-84.005236 44.125091-87.821964 92.048291-164.491636 143.825455-230.046255 51.739927-65.554618 86.946909-98.322618 105.620945-98.322618 5.9392 0 10.184145 1.582545 12.734836 4.766255 2.550691 3.183709 3.816727 8.582982 3.816727 16.235055 0 6.367418-2.550691 17.184582-7.633455 32.451491s-15.490327 43.063855-31.185455 83.372218c-5.510982 13.163055-13.163055 31.818473-22.900364 56.003491-34.369164 84.005236-51.553745 139.580509-51.553745 166.725818 0 39.880145 16.644655 68.943127 49.9712 87.188945 33.289309 18.245818 86.6304 27.368727 160.041891 27.368727l7.633455 0 24.185018-85.904291c-34.350545-2.122473-57.809455-6.460509-70.302255-13.051345-12.530036-6.572218-18.785745-17.501091-18.785745-32.768 0-9.755927 2.960291-25.767564 8.918109-48.053527 5.9392-22.267345 13.777455-45.279418 23.552-69.036218l10.165527-25.451055c53.881018-131.928436 80.821527-212.954764 80.821527-243.0976 0-25.879273-8.825018-46.452364-26.4192-61.719273-17.6128-15.266909-41.686109-22.900364-72.219927-22.900364-44.553309 0-88.454982 19.828364-131.723636 59.503709-43.268655 39.675345-106.272582 122.935855-188.993164 249.781527 30.124218-64.902982 51.758545-115.190691 64.902982-150.825891 13.144436-35.6352 19.735273-61.942691 19.735273-78.903855 0-24.594618-7.540364-44.013382-22.583855-58.219055-15.080727-14.205673-35.318691-21.317818-60.788364-21.317818-43.696873 0-89.832727 23.980218-138.407564 71.903418-48.574836 47.941818-108.078545 128.763345-178.492509 242.445964 20.368291-61.514473 43.901673-125.039709 70.637382-190.594327 26.717091-65.554618 40.084945-101.915927 40.084945-109.139782 0-9.327709-7.223855-16.011636-21.634327-20.051782-14.410473-4.021527-38.818909-6.050909-73.188073-6.050909-36.491636 0-63.636945 40.941382-81.454545 122.824145-12.734836 58.125964-24.818036 107.538618-36.268218 148.2752-25.469673 89.516218-53.676218 154.2144-84.638255 194.094545-30.980655 39.880145-68.719709 60.676655-113.273018 62.370909l-24.1664 85.904291C2899.241891 1007.467055 2927.467055 1001.434764 2952.061673 991.045818z" p-id="5092"></path><path d="M4153.865309 770.215564c-4.673164-15.062109-7.000436-32.9728-7.000436-53.769309 0-54.718836 13.572655-102.772364 40.736582-144.141964 27.145309-41.3696 58.330764-62.0544 93.537745-62.0544 16.961164 0 29.9008 4.766255 38.818909 14.317382s13.367855 23.440291 13.367855 41.686109c0 36.491636-15.062109 79.220364-45.186327 128.223418-30.124218 49.003055-67.248873 87.933673-111.355345 116.773236C4166.171927 798.962036 4158.538473 785.277673 4153.865309 770.215564zM4204.786036 993.577891c36.063418 10.388945 77.842618 15.583418 125.356218 15.583418l17.184582 0 24.818036-85.904291L4363.226764 923.257018c-30.552436 0-56.32-3.500218-77.321309-10.500655s-40.401455-18.767127-58.219055-35.318691c61.086255-46.228945 109.9776-99.588655 146.674036-160.041891 36.696436-60.453236 55.053964-115.712 55.053964-165.776291 0-45.819345-12.827927-81.975855-38.5024-108.506764-25.674473-26.512291-60.564945-39.768436-104.690036-39.768436-78.903855 0-147.325673 31.408873-205.228218 94.189382-57.902545 62.799127-86.872436 136.6016-86.872436 221.463273 0 36.491636 3.816727 68.310109 11.450182 95.455418 7.633455 27.145309 19.511855 51.330327 35.6352 72.536436-23.328582 10.184145-47.401891 18.245818-72.219927 24.185018-24.818036 5.9392-51.870255 9.979345-81.138036 12.0832l-25.451055 85.904291c42.002618-1.694255 83.688727-7.856873 125.039709-18.450618s82.627491-25.655855 123.773673-45.186327C4137.537164 967.177309 4168.722618 983.188945 4204.786036 993.577891z" p-id="5093"></path></svg>